 
<svg xmlns="http://www.w3.org/2000/svg" xmlns:xlink="http://www.w3.org/1999/xlink" aria-hidden="true" role="img" class="iconify iconify--logos" width="31.88" height="32" preserveAspectRatio="xMidYMid meet" viewBox="0 0 121 120">
<path d="M0 0 C12.67805572 9.86691561 22.25149702 22.85232259 25 39 C26.65800258 57.71491211 23.81507656 72.46840932 13 88 C12.2575 89.0725 11.515 90.145 10.75 91.25 C-1.81367625 103.81367625 -17.02169063 110.83099514 -34.8125 111.4375 C-51.62995621 111.00676337 -66.82853188 104.67989024 -79 93 C-92.59744902 77.68931578 -96.01464715 61.45286594 -95.1953125 41.59765625 C-94.03204008 26.12613305 -84.9111406 13.27111393 -73.87890625 3.03125 C-53.02665081 -14.41577474 -22.27788559 -14.8960602 0 0 Z " fill="#D4D1D1" transform="translate(95,10)"/>
<path d="M0 0 C7.88406958 4.95013893 12.3229301 11.71488404 15.21484375 20.390625 C16.31259536 30.04806009 14.7984228 37.38139276 9.21484375 45.390625 C3.68375391 51.60308098 -2.17299705 55.82644651 -10.6171875 56.859375 C-21.23181702 56.9427087 -28.61150905 55.40982426 -36.66015625 48.140625 C-43.17299222 41.10553332 -45.16767945 32.36285236 -45.0703125 23.015625 C-44.59738975 18.66214431 -42.88387746 15.18587345 -40.78515625 11.390625 C-40.22828125 10.33875 -39.67140625 9.286875 -39.09765625 8.203125 C-29.66155317 -3.27321659 -13.35481758 -6.31076238 0 0 Z " fill="#FD0000" transform="translate(74.78515625,29.609375)"/>
<path d="M0 0 C1.20624074 3.61872223 0.70235768 4.25270198 -0.8125 7.625 C-6.09256663 20.24965758 -5.64278322 31.7136789 -3 45 C-2.83242187 45.86367187 -2.66484375 46.72734375 -2.4921875 47.6171875 C-1.19526804 53.89592458 0.7446901 58.07979793 5 63 C5.66 63.33 6.32 63.66 7 64 C7 64.66 7 65.32 7 66 C7.66 66 8.32 66 9 66 C10.625 67.375 10.625 67.375 12 69 C12 69.66 12 70.32 12 71 C12.5775 71.268125 13.155 71.53625 13.75 71.8125 C16 73 16 73 18 74.5625 C20.04443806 76.03193986 21.54522028 76.56164648 24 77 C24 77.66 24 78.32 24 79 C24.639375 79.103125 25.27875 79.20625 25.9375 79.3125 C28.50300084 79.88842876 30.78511505 80.61505882 33.25 81.5 C44.0709231 85.18486584 57.99013134 85.61496391 68.52734375 80.859375 C70.03034439 80.00639002 71.51710787 79.124021 72.984375 78.2109375 C75 77 75 77 78.5625 75.6875 C82.70304537 73.65486864 85.20864169 71.01611761 88.30078125 67.64453125 C90 66 90 66 92 66 C92.40605469 65.15115234 92.40605469 65.15115234 92.8203125 64.28515625 C94.04873605 61.90559407 95.43827898 59.69679964 96.875 57.4375 C101.49867908 49.73890475 104.3054881 42.18767772 104.82421875 33.19140625 C104.99774759 31.02808004 105.41550759 29.08611517 106 27 C105.67 27 105.34 27 105 27 C105 21.72 105 16.44 105 11 C110.8970127 16.8970127 110.36729334 26.98975613 110.4375 34.8125 C110.33035194 49.69735833 106.52484821 60.7574188 98 73 C97.2575 74.0725 96.515 75.145 95.75 76.25 C83.18632375 88.81367625 67.97830937 95.83099514 50.1875 96.4375 C33.37004379 96.00676337 18.17146812 89.67989024 6 78 C-7.59744902 62.68931578 -11.01464715 46.45286594 -10.1953125 26.59765625 C-9.45394026 16.73740547 -5.01385786 8.33971691 0 0 Z " fill="#ABA9A9" transform="translate(10,25)"/>
<path d="M0 0 C0.33 0 0.66 0 1 0 C1.24234375 0.81082031 1.4846875 1.62164062 1.734375 2.45703125 C2.80032915 5.97877976 3.89361584 9.49074715 5 13 C5.48533203 14.55267578 5.48533203 14.55267578 5.98046875 16.13671875 C7.83295584 21.67905768 9.44479811 25.15338507 14 29 C15.5756214 30.50723505 17.1370205 32.0294137 18.6875 33.5625 C19.45449219 34.30628906 20.22148437 35.05007812 21.01171875 35.81640625 C23 38 23 38 24.04296875 40.16796875 C25.24495321 42.46891044 26.22673914 42.86175524 28.625 43.75 C30.295625 44.36875 30.295625 44.36875 32 45 C32 45.66 32 46.32 32 47 C32.85851563 47.13277344 33.71703125 47.26554687 34.6015625 47.40234375 C37.91000896 47.98417399 41.12120487 48.73097458 44.375 49.5625 C45.43460938 49.83191406 46.49421875 50.10132813 47.5859375 50.37890625 C48.38257813 50.58386719 49.17921875 50.78882813 50 51 C50 51.66 50 52.32 50 53 C64.0215915 52.28623861 64.0215915 52.28623861 78 51 C78 50.34 78 49.68 78 49 C79.85546875 48.31640625 81.7109375 47.6328125 83.56640625 46.94921875 C84.36949219 46.63597656 85.17257813 46.32273438 86 46 C87.11117187 45.57589844 88.22234375 45.15179688 89.3671875 44.71484375 C93.28480645 43.01649049 96.34710434 40.65309413 99.5625 37.875 C100.12751221 37.39144043 100.69252441 36.90788086 101.2746582 36.40966797 C107.26700804 31.1226577 111.15199014 25.46464686 114 18 C114.66 18 115.32 18 116 18 C116.33 16.02 116.66 14.04 117 12 C117.99 12.99 117.99 12.99 119 14 C116.06467908 22.63011404 112.64301227 29.82946092 107 37 C106.38382812 37.825 105.76765625 38.65 105.1328125 39.5 C94.76066465 51.65782898 79.2098459 57.84119518 63.625 59.3203125 C46.6115301 59.90031716 31.44807414 54.21671224 18.41796875 43.3203125 C8.60335275 33.90208648 0.5202745 20.42809859 -0.11328125 6.51171875 C-0.12343136 4.33621275 -0.09055824 2.1733977 0 0 Z " fill="#706F6F" transform="translate(0,62)"/>
<path d="M0 0 C7.88406958 4.95013893 12.3229301 11.71488404 15.21484375 20.390625 C15.28421437 22.61880941 15.29941459 24.84897024 15.27734375 27.078125 C15.26832031 28.25761719 15.25929687 29.43710937 15.25 30.65234375 C15.23839844 31.55597656 15.22679687 32.45960937 15.21484375 33.390625 C14.88484375 33.390625 14.55484375 33.390625 14.21484375 33.390625 C13.07432769 28.40778784 11.99258509 23.44594368 11.21484375 18.390625 C10.55484375 18.390625 9.89484375 18.390625 9.21484375 18.390625 C5.21484375 13.92003676 5.21484375 13.92003676 5.21484375 11.390625 C4.55484375 11.390625 3.89484375 11.390625 3.21484375 11.390625 C2.80234375 10.7925 2.38984375 10.194375 1.96484375 9.578125 C-0.60464012 6.36627016 -3.63923027 4.70376099 -7.75439453 4.10327148 C-9.91837999 3.98821968 -12.05604644 3.98114315 -14.22265625 4.015625 C-14.94775391 4.00402344 -15.67285156 3.99242187 -16.41992188 3.98046875 C-25.4053287 4.0289076 -30.88718122 7.86559223 -37.32421875 13.8125 C-41.63610488 18.47025935 -43.26999939 24.20874273 -43.78515625 30.390625 C-44.11515625 30.390625 -44.44515625 30.390625 -44.78515625 30.390625 C-45.33926416 23.01791143 -44.36081551 17.85671266 -40.78515625 11.390625 C-40.22828125 10.33875 -39.67140625 9.286875 -39.09765625 8.203125 C-29.66155317 -3.27321659 -13.35481758 -6.31076238 0 0 Z " fill="#B20C0C" transform="translate(74.78515625,29.609375)"/>
<path d="M0 0 C3.77575829 3.77575829 4.11332781 8.72248985 4.23046875 13.84765625 C4.22652695 15.58599204 4.21201758 17.32433265 4.1875 19.0625 C4.1865332 20.37057617 4.1865332 20.37057617 4.18554688 21.70507812 C4.10337364 33.76628277 4.10337364 33.76628277 1.578125 36.58984375 C1.05734375 37.05519531 0.5365625 37.52054688 0 38 C-0.8008269 39.49469405 -1.54663105 41.01954629 -2.25 42.5625 C-4.94411731 48.13850644 -8.32276878 53.0331237 -12 58 C-12.51691406 58.72445312 -13.03382812 59.44890625 -13.56640625 60.1953125 C-15.41164798 62.51820536 -17.41497004 63.55719258 -20 65 C-20.88945313 65.63550781 -21.77890625 66.27101563 -22.6953125 66.92578125 C-26.19560364 69.1227725 -29.64927523 70.46682507 -33.5625 71.6875 C-34.20896484 71.89955078 -34.85542969 72.11160156 -35.52148438 72.33007812 C-48.57480597 76.53954196 -65.7520364 77.52076703 -78.60546875 72.2890625 C-82.39994163 70.24636095 -85.77129987 67.84885305 -89 65 C-88.67 64.34 -88.34 63.68 -88 63 C-84.535 64.485 -84.535 64.485 -81 66 C-81 66.66 -81 67.32 -81 68 C-80.360625 68.103125 -79.72125 68.20625 -79.0625 68.3125 C-76.49699916 68.88842876 -74.21488495 69.61505882 -71.75 70.5 C-60.9290769 74.18486584 -47.00986866 74.61496391 -36.47265625 69.859375 C-34.96965561 69.00639002 -33.48289213 68.124021 -32.015625 67.2109375 C-30 66 -30 66 -26.4375 64.6875 C-22.29695463 62.65486864 -19.79135831 60.01611761 -16.69921875 56.64453125 C-15 55 -15 55 -13 55 C-12.72929688 54.43410156 -12.45859375 53.86820313 -12.1796875 53.28515625 C-10.95126395 50.90559407 -9.56172102 48.69679964 -8.125 46.4375 C-3.50132092 38.73890475 -0.6945119 31.18767772 -0.17578125 22.19140625 C-0.00225241 20.02808004 0.41550759 18.08611517 1 16 C0.67 16 0.34 16 0 16 C0 10.72 0 5.44 0 0 Z " fill="#BAB9B9" transform="translate(115,36)"/>
<path d="M0 0 C0.33 0 0.66 0 1 0 C1.24234375 0.81082031 1.4846875 1.62164062 1.734375 2.45703125 C2.80032915 5.97877976 3.89361584 9.49074715 5 13 C5.48533203 14.55267578 5.48533203 14.55267578 5.98046875 16.13671875 C7.83295584 21.67905768 9.44479811 25.15338507 14 29 C15.5756214 30.50723505 17.1370205 32.0294137 18.6875 33.5625 C19.45449219 34.30628906 20.22148437 35.05007812 21.01171875 35.81640625 C23 38 23 38 24.04296875 40.16796875 C25.24495321 42.46891044 26.22673914 42.86175524 28.625 43.75 C30.295625 44.36875 30.295625 44.36875 32 45 C32 45.66 32 46.32 32 47 C32.85851563 47.13277344 33.71703125 47.26554687 34.6015625 47.40234375 C37.91000896 47.98417399 41.12120487 48.73097458 44.375 49.5625 C45.43460938 49.83191406 46.49421875 50.10132813 47.5859375 50.37890625 C48.38257813 50.58386719 49.17921875 50.78882813 50 51 C50 51.66 50 52.32 50 53 C57.92 52.67 65.84 52.34 74 52 C74 52.66 74 53.32 74 54 C69.91691764 54.11800816 65.83428424 54.18784785 61.75 54.25 C60.61046875 54.28351563 59.4709375 54.31703125 58.296875 54.3515625 C50.14477271 54.44420003 43.55346269 53.05513972 36 50 C35.67 50.99 35.34 51.98 35 53 C22.84782695 49.6112381 13.36424284 39.4963504 7 29 C2.22777084 19.5493447 -0.44191988 10.60607715 0 0 Z " fill="#757474" transform="translate(0,62)"/>
<path d="M0 0 C3.41978989 2.06430954 4.86184345 3.12459285 6.1484375 6.984375 C6.8084375 6.984375 7.4684375 6.984375 8.1484375 6.984375 C12.1484375 11.45496324 12.1484375 11.45496324 12.1484375 13.984375 C12.8084375 13.984375 13.4684375 13.984375 14.1484375 13.984375 C13.6534375 16.459375 13.6534375 16.459375 13.1484375 18.984375 C10.1484375 15.234375 10.1484375 15.234375 10.1484375 12.984375 C9.4884375 12.984375 8.8284375 12.984375 8.1484375 12.984375 C7.9421875 12.18 7.7359375 11.375625 7.5234375 10.546875 C6.8428125 9.2784375 6.8428125 9.2784375 6.1484375 7.984375 C3.09571285 7.08606661 3.09571285 7.08606661 0.1484375 6.984375 C0.1484375 6.324375 0.1484375 5.664375 0.1484375 4.984375 C-0.6559375 5.005 -1.4603125 5.025625 -2.2890625 5.046875 C-4.8515625 4.984375 -4.8515625 4.984375 -5.8515625 3.984375 C-14.11943741 3.04484376 -20.21098336 3.89613903 -26.8515625 8.984375 C-31.54732233 12.78802157 -35.61352651 16.38954987 -36.6875 22.62109375 C-37.04302097 27.74228866 -36.99228685 32.85575424 -36.8515625 37.984375 C-40.88325825 32.90093253 -41.31583847 28.6362891 -41.26171875 22.265625 C-40.51186488 16.26679403 -37.75329541 10.60080563 -33.22265625 6.515625 C-31.6640625 5.484375 -31.6640625 5.484375 -28.8515625 3.984375 C-28.3565625 3.448125 -27.8615625 2.911875 -27.3515625 2.359375 C-21.28777377 -3.199098 -7.32971404 -2.61058308 0 0 Z " fill="#CE0000" transform="translate(71.8515625,34.015625)"/>
<path d="M0 0 C1.20624074 3.61872223 0.70235768 4.25270198 -0.8125 7.625 C-6.09256663 20.24965758 -5.64278322 31.7136789 -3 45 C-2.83242187 45.86367187 -2.66484375 46.72734375 -2.4921875 47.6171875 C-1.19526804 53.89592458 0.7446901 58.07979793 5 63 C5.66 63.33 6.32 63.66 7 64 C7 64.66 7 65.32 7 66 C7.66 66 8.32 66 9 66 C10.625 67.375 10.625 67.375 12 69 C12 69.66 12 70.32 12 71 C13.32 71.66 14.64 72.32 16 73 C14.515 73.495 14.515 73.495 13 74 C1.11073634 62.76854396 -8.83325644 51.07743048 -10.23828125 34.125 C-10.54506106 21.20795557 -6.59184874 10.96444173 0 0 Z " fill="#B1AFAF" transform="translate(10,25)"/>
<path d="M0 0 C4.71986417 2.97268638 9.49908582 6.59976964 10.94140625 12.15625 C11.03550781 12.89746094 11.12960938 13.63867188 11.2265625 14.40234375 C10.5665625 14.40234375 9.9065625 14.40234375 9.2265625 14.40234375 C8.30409629 13.16553396 7.43792153 11.88643387 6.6015625 10.58984375 C3.35330232 6.04710365 0.54051688 4.8682622 -4.7734375 3.40234375 C-4.7734375 2.74234375 -4.7734375 2.08234375 -4.7734375 1.40234375 C-16.97025918 0.40442198 -24.18818773 2.28642166 -34.7734375 8.40234375 C-36.42622384 9.10271475 -38.08847372 9.78337746 -39.7734375 10.40234375 C-37.04869516 4.22626112 -31.27478317 1.12671265 -25.43359375 -1.75 C-17.52110227 -4.27130786 -7.47911084 -3.51443168 0 0 Z " fill="#920303" transform="translate(74.7734375,29.59765625)"/>
<path d="M0 0 C0.66 0.66 1.32 1.32 2 2 C-0.82280256 10.2992997 -3.83955174 18.5501347 -10 25 C-12.01953125 25.60546875 -12.01953125 25.60546875 -14 26 C-15.65758497 27.16255285 -15.65758497 27.16255285 -17.125 28.5625 C-20 31 -20 31 -22 31 C-22 31.66 -22 32.32 -22 33 C-28.727416 38.20832206 -34.58404432 40.28528663 -43 40 C-41.02 39.505 -41.02 39.505 -39 39 C-39 38.34 -39 37.68 -39 37 C-37.14453125 36.31640625 -35.2890625 35.6328125 -33.43359375 34.94921875 C-32.63050781 34.63597656 -31.82742187 34.32273438 -31 34 C-29.33324219 33.36384766 -29.33324219 33.36384766 -27.6328125 32.71484375 C-23.71519355 31.01649049 -20.65289566 28.65309413 -17.4375 25.875 C-16.87248779 25.39144043 -16.30747559 24.90788086 -15.7253418 24.40966797 C-9.73299196 19.1226577 -5.84800986 13.46464686 -3 6 C-2.34 6 -1.68 6 -1 6 C-0.67 4.02 -0.34 2.04 0 0 Z " fill="#7E7D7D" transform="translate(117,74)"/>
<path d="M0 0 C0.33 0 0.66 0 1 0 C1.05814085 3.58326501 1.09364357 7.16640838 1.125 10.75 C1.14175781 11.76578125 1.15851563 12.7815625 1.17578125 13.828125 C1.18222656 14.8078125 1.18867187 15.7875 1.1953125 16.796875 C1.20578613 17.69760742 1.21625977 18.59833984 1.22705078 19.52636719 C0.98395782 22.17477349 0.31086787 23.71218168 -1 26 C-1.67966676 27.66140763 -2.34938905 29.32700041 -3 31 C-3.66 31 -4.32 31 -5 31 C-5.09796875 31.71929687 -5.1959375 32.43859375 -5.296875 33.1796875 C-7.98345432 43.95585566 -18.68641665 51.44798385 -27 58 C-27.66 57.67 -28.32 57.34 -29 57 C-27.2015989 55.10168773 -25.42155957 53.5695327 -23.3125 52 C-14.2416644 44.53122741 -8.04255769 32.45863817 -3 22 C-2.34 22 -1.68 22 -1 22 C-0.67 14.74 -0.34 7.48 0 0 Z " fill="#989696" transform="translate(119,49)"/>
<path d="M0 0 C0.33 0 0.66 0 1 0 C1.24234375 0.81082031 1.4846875 1.62164062 1.734375 2.45703125 C2.80032915 5.97877976 3.89361584 9.49074715 5 13 C5.48533203 14.55267578 5.48533203 14.55267578 5.98046875 16.13671875 C7.83295584 21.67905768 9.44479811 25.15338507 14 29 C15.5774168 30.48430539 17.13865485 31.98590458 18.6875 33.5 C19.45449219 34.2321875 20.22148437 34.964375 21.01171875 35.71875 C23.06419717 38.07365648 24.02957288 40.05239249 25 43 C21.60140297 41.53033642 19.35036291 39.61962486 16.75 37 C15.69039062 35.948125 15.69039062 35.948125 14.609375 34.875 C13 33 13 33 13 31 C11.68 31.33 10.36 31.66 9 32 C3.31167177 21.45174086 -0.59539737 12.10641311 0 0 Z " fill="#898787" transform="translate(0,62)"/>
<path d="M0 0 C2.64 0.99 5.28 1.98 8 3 C8 3.66 8 4.32 8 5 C8.639375 5.103125 9.27875 5.20625 9.9375 5.3125 C12.50300084 5.88842876 14.78511505 6.61505882 17.25 7.5 C28.00891377 11.16374971 42.2597631 11.76676217 52.6328125 6.71875 C54.13353635 5.82723088 55.61391651 4.89973417 57.0625 3.92578125 C59 3 59 3 61.25 3.35546875 C61.8275 3.56816406 62.405 3.78085938 63 4 C62.34 4 61.68 4 61 4 C61 4.66 61 5.32 61 6 C59.50292061 6.63196384 58.00213297 7.25514393 56.5 7.875 C55.24703125 8.39707031 55.24703125 8.39707031 53.96875 8.9296875 C40.83739146 13.66388782 23.46275072 14.63864598 10.39453125 9.28125 C6.62729275 7.26550085 2.99355799 5.08160381 0 2 C0 1.34 0 0.68 0 0 Z " fill="#C3C1C1" transform="translate(26,99)"/>
<path d="M0 0 C2.66050913 1.49261968 4.09345171 3.55091315 5.82421875 6.0234375 C5.82421875 6.6834375 5.82421875 7.3434375 5.82421875 8.0234375 C6.48421875 8.0234375 7.14421875 8.0234375 7.82421875 8.0234375 C7.49421875 9.6734375 7.16421875 11.3234375 6.82421875 13.0234375 C3.82421875 9.2734375 3.82421875 9.2734375 3.82421875 7.0234375 C3.16421875 7.0234375 2.50421875 7.0234375 1.82421875 7.0234375 C1.61796875 6.2190625 1.41171875 5.4146875 1.19921875 4.5859375 C0.51859375 3.3175 0.51859375 3.3175 -0.17578125 2.0234375 C-3.2285059 1.12512911 -3.2285059 1.12512911 -6.17578125 1.0234375 C-6.17578125 0.3634375 -6.17578125 -0.2965625 -6.17578125 -0.9765625 C-6.98015625 -0.9559375 -7.78453125 -0.9353125 -8.61328125 -0.9140625 C-11.17578125 -0.9765625 -11.17578125 -0.9765625 -12.17578125 -1.9765625 C-20.4021448 -2.91137654 -26.58821089 -2.10293426 -33.17578125 3.0234375 C-35.98498057 5.56912734 -38.6236973 8.22101289 -41.17578125 11.0234375 C-41.50578125 10.0334375 -41.83578125 9.0434375 -42.17578125 8.0234375 C-28.64463656 -5.89431132 -17.77882535 -7.97972413 0 0 Z " fill="#E50000" transform="translate(78.17578125,39.9765625)"/>
<path d="M0 0 C0.54785156 0.3196875 1.09570312 0.639375 1.66015625 0.96875 C0.60957031 0.99453125 -0.44101563 1.0203125 -1.5234375 1.046875 C-12.83966146 1.45131474 -20.8246749 3.06180749 -29.33984375 10.96875 C-30.0978125 11.67064453 -30.0978125 11.67064453 -30.87109375 12.38671875 C-35.19121005 17.04003551 -36.82457466 22.78552088 -37.33984375 28.96875 C-37.66984375 28.96875 -37.99984375 28.96875 -38.33984375 28.96875 C-38.87561504 21.84001529 -38.3763272 16.03556046 -34.33984375 9.96875 C-31.90134763 7.73778547 -30.17902711 6.48761383 -27.33984375 4.96875 C-25.89351562 4.16050781 -25.89351562 4.16050781 -24.41796875 3.3359375 C-16.80558038 -0.57952542 -8.33964542 -3.67556993 0 0 Z " fill="#9F0000" transform="translate(68.33984375,31.03125)"/>
<path d="M0 0 C3.77575829 3.77575829 4.11332781 8.72248985 4.23046875 13.84765625 C4.22652695 15.58599204 4.21201758 17.32433265 4.1875 19.0625 C4.18685547 19.93455078 4.18621094 20.80660156 4.18554688 21.70507812 C4.15462731 26.24338292 3.91634254 30.53557916 3 35 C1.515 35.495 1.515 35.495 0 36 C0.165 34.741875 0.33 33.48375 0.5 32.1875 C1.11073012 26.7855491 1.09133564 21.42939662 1 16 C0.67 16 0.34 16 0 16 C0 10.72 0 5.44 0 0 Z " fill="#B0AEAE" transform="translate(115,36)"/>
<path d="M0 0 C0.7734375 0.3403125 0.7734375 0.3403125 1.5625 0.6875 C-5.0625 3.6875 -5.0625 3.6875 -8.4375 3.6875 C-8.4375 4.3475 -8.4375 5.0075 -8.4375 5.6875 C-17.67205499 8.28616874 -26.942475 7.87367696 -36.4375 7.6875 C-36.4375 7.0275 -36.4375 6.3675 -36.4375 5.6875 C-37.7575 5.3575 -39.0775 5.0275 -40.4375 4.6875 C-39.74712646 4.69797363 -39.05675293 4.70844727 -38.34545898 4.71923828 C-35.18867701 4.76105697 -32.03195355 4.78690802 -28.875 4.8125 C-27.24594727 4.83763672 -27.24594727 4.83763672 -25.58398438 4.86328125 C-18.21260413 4.90809207 -12.41643819 4.30900685 -5.75 1 C-2.4375 -0.3125 -2.4375 -0.3125 0 0 Z " fill="#939191" transform="translate(86.4375,107.3125)"/>
<path d="M0 0 C2.65040231 1.63361161 4.7347805 3.12190475 6.1484375 5.94921875 C5.54515625 5.74425781 4.941875 5.53929687 4.3203125 5.328125 C3.52109375 5.05871094 2.721875 4.78929687 1.8984375 4.51171875 C1.10953125 4.24488281 0.320625 3.97804688 -0.4921875 3.703125 C-1.27078125 3.45433594 -2.049375 3.20554687 -2.8515625 2.94921875 C-3.45613281 2.75457031 -4.06070313 2.55992188 -4.68359375 2.359375 C-7.89377365 1.75204367 -11.0257175 1.81775028 -14.2890625 1.82421875 C-16.23619141 1.82035156 -16.23619141 1.82035156 -18.22265625 1.81640625 C-21.25267791 1.92730048 -23.91654888 2.23667209 -26.8515625 2.94921875 C-25.8515625 0.94921875 -25.8515625 0.94921875 -23.3125 -0.1484375 C-16.09601246 -2.02993707 -7.07626046 -2.60755351 0 0 Z " fill="#C40000" transform="translate(71.8515625,34.05078125)"/>
<path d="M0 0 C8.415 1.98 8.415 1.98 17 4 C17 4.66 17 5.32 17 6 C24.92 5.67 32.84 5.34 41 5 C41 5.66 41 6.32 41 7 C36.91691764 7.11800816 32.83428424 7.18784785 28.75 7.25 C27.61046875 7.28351563 26.4709375 7.31703125 25.296875 7.3515625 C17.30811851 7.44234382 10.27768675 6.46514808 3 3 C2.01 2.01 1.02 1.02 0 0 Z " fill="#807F7F" transform="translate(33,109)"/>
<path d="M0 0 C2.64 0.99 5.28 1.98 8 3 C8 3.66 8 4.32 8 5 C8.66 5.0825 9.32 5.165 10 5.25 C13.999834 6.2499585 17.36900186 8.08704869 21 10 C22.33194058 10.66944492 23.66488733 11.33690395 25 12 C15.45724324 11.29312913 7.39383628 8.10795171 0 2 C0 1.34 0 0.68 0 0 Z " fill="#B9B7B7" transform="translate(26,99)"/>
<path d="M0 0 C7.83098592 1.95774648 7.83098592 1.95774648 11 5 C11 5.66 11 6.32 11 7 C14.3 7.99 17.6 8.98 21 10 C16.93890631 11.01527342 16.33033162 11.05430484 12.75 9.5625 C12.04359375 9.27503906 11.3371875 8.98757812 10.609375 8.69140625 C10.07828125 8.46324219 9.5471875 8.23507813 9 8 C9 7.34 9 6.68 9 6 C7.88625 5.7525 6.7725 5.505 5.625 5.25 C2 4 2 4 0.5625 1.875 C0.376875 1.25625 0.19125 0.6375 0 0 Z " fill="#999797" transform="translate(23,101)"/>
<path d="M0 0 C0 5.75829296 -4.39223355 10.34225117 -8.26171875 14.33203125 C-14.78128253 20.3127881 -14.78128253 20.3127881 -19 21 C-17.83593677 19.83593677 -16.67129061 18.67245135 -15.50390625 17.51171875 C-14.4596661 16.46205398 -13.42652024 15.40128152 -12.40234375 14.33203125 C-10.97138652 12.85185191 -9.48847779 11.42232322 -8 10 C-7.34 10 -6.68 10 -6 10 C-5.62875 9.195625 -5.62875 9.195625 -5.25 8.375 C-3.70303025 5.43575748 -1.86985631 2.74245592 0 0 Z " fill="#C4C3C3" transform="translate(108,81)"/>
<path d="M0 0 C0.68309575 2.12518678 1.12717332 3.53369784 0.53125 5.71875 C-0.17777762 8.76339802 -0.09372019 11.62798148 -0.0625 14.75 C-0.05347656 15.92046875 -0.04445312 17.0909375 -0.03515625 18.296875 C-0.02355469 19.18890625 -0.01195312 20.0809375 0 21 C-2.98764927 17.27755051 -3.84072517 14.85788225 -4 10 C-2.11464968 2.11464968 -2.11464968 2.11464968 0 0 Z " fill="#E50404" transform="translate(35,51)"/>
<path d="M0 0 C0.33 0 0.66 0 1 0 C0.97679687 0.65484375 0.95359375 1.3096875 0.9296875 1.984375 C0.78672306 9.21429115 1.68017596 15.90720515 3 23 C3.35827815 25.33077653 3.68137528 27.66341873 4 30 C2 29 2 29 0.9140625 26.75390625 C-1.72935874 18.7897525 -1.47220491 9.30525108 -1 1 C-0.67 0.67 -0.34 0.34 0 0 Z " fill="#BEBDBD" transform="translate(4,47)"/>
<path d="M0 0 C2.91796875 -0.390625 2.91796875 -0.390625 6.1875 -0.25 C7.27417969 -0.21390625 8.36085938 -0.1778125 9.48046875 -0.140625 C10.31191406 -0.09421875 11.14335938 -0.0478125 12 0 C12 0.99 12 1.98 12 3 C12.66 3.33 13.32 3.66 14 4 C8.39 4 2.78 4 -3 4 C-2.01 2.68 -1.02 1.36 0 0 Z " fill="#870000" transform="translate(55,27)"/>
<path d="M0 0 C2.84194886 2.84194886 2.98380458 4.75706869 3.25 8.75 C3.21772968 13.10649276 1.93461671 16.13076659 0 20 C-0.94148531 17.17554408 -1.07311695 15.85828382 -0.87890625 12.98828125 C-0.83056641 12.23095703 -0.78222656 11.47363281 -0.73242188 10.69335938 C-0.67634766 9.90767578 -0.62027344 9.12199219 -0.5625 8.3125 C-0.51029297 7.51521484 -0.45808594 6.71792969 -0.40429688 5.89648438 C-0.27480978 3.93063478 -0.13809959 1.96526335 0 0 Z " fill="#E00303" transform="translate(86,52)"/>
<path d="M0 0 C0.99 0.33 1.98 0.66 3 1 C1.21656051 6.60509554 1.21656051 6.60509554 -0.0625 8.9375 C-1.39670257 11.87274566 -1.63278215 14.81744533 -2 18 C-2.33 18 -2.66 18 -3 18 C-3.37634203 11.19796625 -2.77471079 6.24309927 0 0 Z " fill="#B01515" transform="translate(33,42)"/>
<path d="M0 0 C-2.14926381 2.39105598 -3.99036913 3.63278854 -7 4.75 C-7.680625 5.01296875 -8.36125 5.2759375 -9.0625 5.546875 C-11 6 -11 6 -14 5 C-12.73168307 4.18357746 -11.46024069 3.37200895 -10.1875 2.5625 C-9.47980469 2.11003906 -8.77210937 1.65757813 -8.04296875 1.19140625 C-4.84443632 -0.67389469 -3.59047601 -1.19682534 0 0 Z " fill="#8D0C0C" transform="translate(55,28)"/>
<path d="M0 0 C4.99911924 0.47610659 7.97832683 2.03162219 12 5 C9.5332355 5.88336837 8.36140628 6.1312406 5.859375 5.22265625 C5.16328125 4.83980469 4.4671875 4.45695312 3.75 4.0625 C3.04359375 3.68222656 2.3371875 3.30195313 1.609375 2.91015625 C1.07828125 2.60980469 0.5471875 2.30945313 0 2 C0 1.34 0 0.68 0 0 Z " fill="#8C0808" transform="translate(67,28)"/>
<path d="M0 0 C2.64 0.99 5.28 1.98 8 3 C8 3.66 8 4.32 8 5 C9.65 5.33 11.3 5.66 13 6 C10.41090253 6.95892499 9.18407932 7.0552238 6.5 6.25 C4.05893154 5.02946577 2.0397153 3.81308027 0 2 C0 1.34 0 0.68 0 0 Z " fill="#BFBDBD" transform="translate(26,99)"/>
<path d="M0 0 C0.66 0 1.32 0 2 0 C2 0.66 2 1.32 2 2 C2.66 2 3.32 2 4 2 C5.625 3.375 5.625 3.375 7 5 C7 5.66 7 6.32 7 7 C8.32 7.66 9.64 8.32 11 9 C10.01 9.33 9.02 9.66 8 10 C6.66070495 8.71451591 5.32871357 7.42141845 4 6.125 C2.88625 5.04605469 2.88625 5.04605469 1.75 3.9453125 C0 2 0 2 0 0 Z " fill="#BDBBBB" transform="translate(15,89)"/>
<path d="M0 0 C0.66 0.33 1.32 0.66 2 1 C2.4140625 3.06640625 2.4140625 3.06640625 2.625 5.5625 C2.69976562 6.38878906 2.77453125 7.21507812 2.8515625 8.06640625 C2.90054688 8.70449219 2.94953125 9.34257813 3 10 C1 7 1 7 1 5 C0.01 5 -0.98 5 -2 5 C-2 3.68 -2 2.36 -2 1 C-1.34 0.67 -0.68 0.34 0 0 Z " fill="#AC0909" transform="translate(86,43)"/>
<path d="M0 0 C2.33333333 2.33333333 4.66666667 4.66666667 7 7 C6.625 9.125 6.625 9.125 6 11 C2.90407165 7.4912812 1.25805377 4.50802601 0 0 Z " fill="#9C9B9B" transform="translate(6,80)"/>
<path d="M0 0 C-4.39251833 2.02055843 -8.15340923 3.40895235 -13 4 C-9.68492165 -0.05176242 -5.01001751 -1.92692981 0 0 Z " fill="#9B9999" transform="translate(88,108)"/>
<path d="M0 0 C2.91517292 1.07401108 4.77810176 1.77810176 7 4 C6.625 6.125 6.625 6.125 6 8 C4.5 6.625 4.5 6.625 3 5 C3 4.34 3 3.68 3 3 C2.34 3 1.68 3 1 3 C0.67 2.01 0.34 1.02 0 0 Z " fill="#B90000" transform="translate(77,38)"/>
<path d="M0 0 C2 1 2 1 3.1875 3.3125 C4.03624754 6.11989571 3.99928333 7.301935 3 10 C0.96564469 6.27034861 0 4.33094958 0 0 Z " fill="#AAA8A8" transform="translate(4,71)"/>
</svg>
